<svg viewBox="-20 -50 490 557">
<g class="box">
<polygon style="fill: #b8cdb7" points="19.3,219.9 49.7,457.3 394.8,457.3 436.2,192.3"/>
<g fill="#FAEECD">
<path d="M62.8,311.7c-0.7-0.6-1.1-0.7-2.1-0.8c-1.9-0.1-1.9,3,0,2.9c1,0,1.4-0.2,2.1-0.8C63.2,312.7,63.2,312,62.8,311.7z"/>
<path d="M63.5,361.4c-2.7,0-2.7,4.2,0,4.2C66.2,365.5,66.2,361.4,63.5,361.4z"/>
<path d="M106.1,304.9c0.1,0.2,0.1,0.4,0.2,0.6c0.9,2.6,4.4,2.6,5.4,0c0.1-0.2,0.1-0.4,0.2-0.6C113.7,300.1,104.4,300.1,106.1,304.9z"/>
<path d="M107.7,335.7c-3.8,0-3.8,5.8,0,5.8C111.4,341.5,111.4,335.7,107.7,335.7z"/>
<path d="M79.7,333.9c-0.6-0.8-0.9-1-1.9-1.2c-3-0.5-3,4.1,0,3.6c0.9-0.2,1.3-0.4,1.9-1.2C79.9,334.7,79.9,334.2,79.7,333.9z"/>
<path d="M71.1,420.8c-1.2-0.8-2.6-0.5-3.7,0.4c-1.2,1-1.3,2.2-1.1,3.7c0.5,3.6,6.4,2,5.7-1.3C72.5,422.6,72,421.4,71.1,420.8z"/>
<path d="M97.7,376.6c-0.3-3.2-4.7-3.2-4.9,0c0,0.2,0,0.5-0.1,0.7c-0.3,3.3,5.3,3.3,5,0C97.8,377,97.7,376.8,97.7,376.6z"/>
<path d="M71.8,401.3c-2.8,0-2.8,4.3,0,4.3C74.5,405.6,74.5,401.3,71.8,401.3z"/>
<path d="M140.7,419.4c-0.4-3.4-4.9-3.4-5.3,0l-0.1,0.7c-0.4,3.5,5.8,3.5,5.4,0L140.7,419.4z"/>
<path d="M111.8,440.4c-2.2,0-2.2,3.4,0,3.4C114,443.8,114,440.4,111.8,440.4z"/>
<path d="M138.7,369.3c-1.3-0.2-2.1-0.2-3.2,0.5c-1.5,0.8-1.5,3.1,0,3.9c1.1,0.7,1.9,0.7,3.2,0.5C141.1,373.8,141.1,369.7,138.7,369.3z"/>
<path d="M127,341.6c-1.4,0-1.4,2.2,0,2.2C128.4,343.9,128.4,341.6,127,341.6z"/>
<path d="M182,303c-0.6-0.5-1.1-0.8-1.9-1.1c-3.7-1.3-3.7,5.7,0,4.4c0.8-0.3,1.3-0.6,1.9-1.1C182.6,304.7,182.6,303.5,182,303z"/>
<path d="M147.7,312.6c-3.3,0-3.3,5,0,5C151,317.7,151,312.6,147.7,312.6z"/>
<path d="M196.1,366.1c-0.4-2.9-5.3-2.9-5.8,0c0,0.2-0.1,0.4-0.1,0.7c-0.8,5,6.8,5,6,0C196.2,366.5,196.2,366.3,196.1,366.1z"/>
<path d="M164.3,351.9c-2.4,0-2.4,3.7,0,3.7C166.6,355.6,166.6,351.9,164.3,351.9z"/>
<path d="M226.4,305.1c-4,0-4,6.2,0,6.2C230.4,311.3,230.4,305.1,226.4,305.1z"/>
<path d="M254,338.4c-3.8,0-3.8,5.9,0,5.9C257.8,344.3,257.8,338.4,254,338.4z"/>
<path d="M215.3,341.2c-2.4,0-3.5,2.5-2.6,4.5c0.1,0.2,0.2,0.4,0.2,0.5c0.8,1.7,3.8,1.7,4.6,0c0.1-0.2,0.2-0.4,0.2-0.5C218.8,343.6,217.8,341.2,215.3,341.2z"/>
<path d="M234.4,401.7l-0.2,0.3c-0.5,0.8-0.5,2.1,0,2.9l0.2,0.3c1.9,2.7,6.4,1.9,6.4-1.7C240.9,399.9,236.3,399,234.4,401.7z"/>
<path d="M172.8,402l-0.9,2.1c-1.2,2.8,2.4,5.1,4.2,2.5c0.4-0.6,0.9-1.3,1.3-1.9C179.3,401.8,174.2,399,172.8,402z"/>
<path d="M186.9,438.6c0,0.2,0.1,0.4,0.1,0.7c0.3,2.1,3.9,2.1,4.2,0c0-0.2,0.1-0.4,0.1-0.7C191.8,434.9,186.4,434.9,186.9,438.6z"/>
<path d="M246.4,430.7c-0.5-0.2-1-0.2-1.4,0c-1.1,0.5-2,1.3-2,2.6l0,3.3c0,3.4,5.3,3.4,5.3,0l0-3.3C248.4,432,247.6,431.1,246.4,430.7z"/>
<path d="M282.9,371.7c-0.5-2.7-5-2.7-5.5,0c0,0.2-0.1,0.4-0.1,0.7c-0.9,4.8,6.6,4.8,5.7,0C283,372.1,283,371.9,282.9,371.7z"/>
<path d="M278.8,306.1c-2.8,0-2.8,4.3,0,4.3S281.6,306.1,278.8,306.1z"/>
<path d="M369.9,297.4c-3.3,0-3.3,5.1,0,5.1S373.3,297.4,369.9,297.4z"/>
<path d="M315.1,340c0,0.2,0,0.5,0,0.7c0.1,3,4.6,3,4.7,0c0-0.2,0-0.5,0-0.7C320,336.9,315,336.9,315.1,340z"/>
<path d="M319.9,303.8c-0.1-0.1-0.3-0.2-0.4-0.3c-1.9-1.5-4.9-0.7-4.9,2s3,3.5,4.9,2c0.1-0.1,0.3-0.2,0.4-0.3C320.9,306.4,320.9,304.5,319.9,303.8z"/>
<path d="M374.9,330.2c-3.2-0.9-5.2,3.7-2.3,5.4C376.3,337.8,379,331.4,374.9,330.2z"/>
<path d="M392.8,300.7c-0.3,0.3-0.6,0.6-0.9,0.9c-2.7,2.6,1.5,6.8,4.1,4.1c0.3-0.3,0.6-0.6,0.9-0.9C399.4,302.1,395.4,298.1,392.8,300.7z"/>
<path d="M389,378.6c0,0.7,0,1.4,0.1,2.1c0.4,3.8,5.6,3.8,6,0c0.1-0.7,0.1-1.4,0.1-2.1C395.1,374.7,389,374.7,389,378.6z"/>
<path d="M338.2,351.7c-4.4,0-4.4,6.9,0,6.9C342.6,358.6,342.6,351.7,338.2,351.7z"/>
<path d="M300.9,400c-0.4-3.5-5.1-3.5-5.5,0c0,0.2-0.1,0.5-0.1,0.7c-0.4,3.6,6.1,3.6,5.6,0C300.9,400.5,300.9,400.3,300.9,400z"/>
<path d="M297.5,438.7c-0.2,0-0.5,0-0.7-0.1c-2.8-0.2-2.8,4.5,0,4.3c0.2,0,0.5,0,0.7-0.1c0.9-0.1,1.8-0.6,2-1.5c0.1-0.4,0.1-0.7,0-1.1C299.2,439.3,298.4,438.8,297.5,438.7z"/>
<path d="M331,417.2c-0.1-0.2-0.2-0.3-0.3-0.5c-0.9-1.7-3.5-1.7-4.4,0c-0.1,0.2-0.2,0.3-0.3,0.5c-1.1,1.9,0.3,4.4,2.5,4.4C330.8,421.6,332.1,419.1,331,417.2z"/>
<path d="M329.7,384.8c-0.4-3.3-4.8-3.3-5.2,0c0,0.2-0.1,0.5-0.1,0.7c-0.4,3.4,5.8,3.4,5.3,0C329.8,385.3,329.8,385.1,329.7,384.8z"/>
<path d="M371.3,401.2c-4.7,0-4.7,7.3,0,7.3S376,401.2,371.3,401.2z"/>
<path d="M361.7,436c-4.4,0-4.4,6.8,0,6.8S366,436,361.7,436z"/>
<path d="M387.8,437.8c-0.1-0.2-0.2-0.4-0.3-0.5c-0.8-1.8-3.9-1.8-4.8,0c-0.1,0.2-0.2,0.4-0.3,0.5c-0.9,2,0.2,4.6,2.6,4.6S388.7,439.9,387.8,437.8z"/>
<polygon class="shadow" fill="#A4BBA7" points="424.5,267.4 421.9,283.6 30.1,304.4 28.7,293.5 "/>
</g>
</g>
<g class="hat">
<path style="fill: #c3373e" d="M390.9,148.4l-16.6-0.5l9.5-27.7c-36.8,33.7-81.3,42.3-111,43.8c25-7.9,47.5-26.2,64.7-44.7c12.3-13.3,18.3-30.1,19.9-48.1c2.2-25-1.3-36.1-15.3-55.7C325.4-7.7,296-3.6,280.8,19.2c-10.8,16.3-12,42.7-14.2,61.4c-3.2,27.4-18.4,49.9-34.6,71.5c-6.9,2.8-12.1,3.3-20.7-3.4c-10.9-8.4-14.7-19.7-18.8-32.3c-6.1-19-13-34.3-28.4-47.5c-22.6-19.3-64.6-25.3-81.4,4.8c-7.3,13.1-2,33.8,2.7,46.8c5.5,15.3,20.1,24.4,34.1,30.8c20.7,9.6,43.8,17.3,67.1,20c-25.3,3.7-64.4,2.3-111-23.3l0.6,19.7l-37.5,9.7c0,0,62.9,17.9,122.2,12.5c0,0,0,0,0,0c10.5,1.3,141.9-8.7,141.9-8.7l-0.2,0c0.7,0,1.5-0.1,2.2-0.1C355.9,177,390.9,148.4,390.9,148.4z M276,103.8c9.6-29.4-4-81.5,31.7-95.5c30.3-11.8,35.3,30.6,35.3,49c0.1,19.6-6.3,34.8-18.7,49.5c-19.6,23.2-43.1,35.4-70.5,42.1C263.5,135.1,271,119.2,276,103.8z M136.1,141.7c-19.3-7.1-34.1-16.1-39.4-37.2c-9-35.7,29.2-44.8,53.8-28.7c19.2,12.6,25.7,29.6,33.7,50c3.7,9.6,9.4,24.3,17.2,31.5C179.4,156.5,157.5,149.6,136.1,141.7z"/>
<polygon style="fill: #e9454f" points="0,200.6 13.8,294.4 433.4,266.8 450,153.6 "/>
<g fill="#F0F2C2">
<path d="M109.6,254.6c-1.2,0.1-2.3,0-3.4-0.2c-1.1-0.2-2-0.6-2.8-1.2c-0.8-0.6-1.5-1.3-2-2.1c-0.5-0.9-0.8-1.9-0.9-3.1L99,225.7c-0.1-1.2,0.1-2.3,0.5-3.2c0.4-0.9,1-1.7,1.7-2.4c0.7-0.6,1.6-1.2,2.6-1.5c1-0.4,2.1-0.6,3.3-0.7c1.2-0.1,2.3,0,3.4,0.2c1.1,0.2,2,0.6,2.8,1.2c0.8,0.5,1.5,1.2,2,2.1c0.5,0.9,0.8,1.9,0.9,3.1l1.5,22.2c0.1,1.2-0.1,2.3-0.5,3.2c-0.4,0.9-1,1.7-1.7,2.4c-0.7,0.7-1.6,1.2-2.7,1.5C111.9,254.3,110.8,254.5,109.6,254.6z M110.7,225.5c-0.1-1.2-0.4-2.1-1-2.5c-0.6-0.4-1.4-0.6-2.2-0.5c-0.9,0.1-1.6,0.3-2.1,0.8c-0.5,0.5-0.8,1.3-0.7,2.6l1.4,21c0.1,1.2,0.4,2.1,1,2.5c0.6,0.4,1.3,0.6,2.2,0.5c0.9-0.1,1.6-0.4,2.1-0.9c0.5-0.5,0.8-1.4,0.7-2.7L110.7,225.5z"/>
<path d="M130.1,228.6c2.4-0.2,4.2,0.4,5.3,1.6c1.1,1.2,1.8,3.1,2,5.5l0.6,9c0.2,2.5-0.3,4.4-1.4,5.9c-1.1,1.5-3,2.3-5.6,2.3c-0.5,0-1,0-1.4-0.1c-0.4-0.1-0.7-0.1-1-0.2c-0.3-0.1-0.6-0.2-0.8-0.2l0.5,7c0,0.3,0.1,0.5,0.2,0.6c0.1,0.1,0.2,0.2,0.4,0.4c0.3,0.1,0.5,0.4,0.8,0.7c0.3,0.3,0.4,0.8,0.5,1.5l0.2,2.3l-9,0.6l-0.2-2.5c0-0.5,0-1,0.2-1.4c0.2-0.4,0.4-0.7,0.7-0.9c0.2-0.1,0.3-0.2,0.4-0.4c0.1-0.2,0.1-0.4,0.1-0.6l-1.7-24.6c0-0.3-0.1-0.5-0.2-0.7c-0.1-0.1-0.2-0.2-0.4-0.3c-0.3-0.2-0.5-0.4-0.8-0.8c-0.3-0.3-0.4-0.8-0.5-1.4l-0.2-2.4l6.5-0.4c0.4,0,0.7,0.1,0.8,0.4c0.1,0.1,0.1,0.3,0.1,0.4c0.1-0.2,0.5-0.4,1.1-0.7C128,228.8,128.9,228.6,130.1,228.6z M132.3,245.4l-0.7-9.6c-0.1-1-0.4-1.6-1.1-1.9c-0.7-0.3-1.5-0.4-2.3-0.2c-0.3,0.1-0.6,0.2-0.8,0.3c-0.2,0.1-0.4,0.3-0.5,0.4c-0.1,0.1-0.2,0.3-0.3,0.5l0.9,12.5c0.1,0.2,0.2,0.3,0.4,0.4c0.1,0.1,0.3,0.2,0.5,0.3c0.2,0.1,0.5,0.1,0.8,0.1c0.4,0,0.7,0,1.1-0.1c0.4-0.1,0.8-0.3,1.1-0.5c0.3-0.2,0.6-0.6,0.7-1c0.2-0.4,0.2-0.9,0.2-1.5L132.3,245.4z"/>
<path d="M146.7,240.6l0.3,4.4c0,0.6,0.3,1.1,0.8,1.5c0.5,0.3,1.1,0.5,1.9,0.4c0.7,0,1.3-0.3,1.8-0.7c0.5-0.4,0.7-0.8,0.6-1.1l0-0.6c0-0.7,0.1-1.4,0.4-1.9c0.3-0.6,1-0.9,1.8-0.9l3.1-0.2l0.2,3.2c0.1,1.1-0.1,2-0.4,2.8c-0.4,0.8-0.9,1.5-1.6,2.1c-0.7,0.6-1.5,1.1-2.5,1.4c-1,0.4-2,0.6-3.2,0.6c-1.2,0.1-2.3,0-3.3-0.3c-1-0.3-1.9-0.7-2.7-1.3c-0.8-0.6-1.4-1.4-1.9-2.3c-0.5-0.9-0.8-2-0.8-3.2l-0.6-9c-0.1-1.2,0-2.3,0.4-3.3c0.3-1,0.9-1.8,1.5-2.5c0.7-0.7,1.5-1.3,2.5-1.7c1-0.4,2.1-0.6,3.2-0.7s2.3,0,3.3,0.3c1,0.3,1.9,0.7,2.7,1.3c0.8,0.6,1.4,1.4,1.8,2.3c0.5,0.9,0.7,2,0.8,3.2l0.2,3.1c0.1,1.6-0.6,2.4-2.3,2.6L146.7,240.6z M146.5,236.8l4.9-0.3l-0.1-1.9c0-0.6-0.2-1-0.4-1.4c-0.2-0.3-0.5-0.6-0.8-0.8c-0.3-0.2-0.6-0.3-0.9-0.3c-0.3,0-0.5-0.1-0.7,0s-0.4,0.1-0.7,0.2c-0.3,0.1-0.5,0.3-0.8,0.5c-0.2,0.2-0.4,0.5-0.6,0.9c-0.2,0.4-0.2,0.8-0.2,1.4L146.5,236.8z"/>
<path d="M179.3,244.9c0.2,0.2,0.4,0.4,0.6,0.8c0.2,0.3,0.3,0.8,0.3,1.4l0.2,2.2l-4.7,0.3c-0.7,0-1.2-0.2-1.7-0.9c-0.5-0.6-0.7-1.4-0.8-2.2l-0.9-12.5c-0.1-1.1-0.3-2-0.8-2.5c-0.4-0.6-1.2-0.8-2.3-0.8c-0.4,0-0.8,0.1-1.1,0.2c-0.3,0.1-0.5,0.3-0.7,0.5c-0.2,0.2-0.4,0.4-0.5,0.6l0.9,12.6c0,0.3,0.1,0.5,0.2,0.7c0.1,0.1,0.2,0.2,0.4,0.3c0.3,0.2,0.5,0.4,0.8,0.8c0.3,0.3,0.4,0.8,0.5,1.4l0.1,2.2l-8.9,0.6l-0.2-2.2c0-0.6,0-1.1,0.3-1.5c0.2-0.4,0.4-0.6,0.7-0.8c0.2-0.1,0.3-0.3,0.3-0.4c0.1-0.1,0.1-0.3,0.1-0.6l-0.8-12.1c0-0.7-0.1-1.1-0.3-1.3s-0.3-0.3-0.4-0.4c-0.3-0.2-0.5-0.4-0.8-0.7c-0.2-0.3-0.4-0.8-0.4-1.3l-0.2-2.5l6.4-0.4c0.3,0,0.4,0,0.6,0.1s0.2,0.2,0.3,0.3c0.1,0.1,0.1,0.3,0.2,0.5c0.3-0.2,0.7-0.5,1.2-0.7c0.4-0.2,0.8-0.4,1.4-0.5c0.5-0.2,1.1-0.3,1.8-0.3c1.2-0.1,2.2,0,3.1,0.4c0.9,0.3,1.6,0.9,2.1,1.5c0.6,0.7,1,1.5,1.3,2.5s0.5,2.1,0.6,3.3l0.7,10.5c0,0.3,0.1,0.5,0.2,0.6C179,244.7,179.1,244.8,179.3,244.9z"/>
<path d="M210.6,223.2l0.2,2.5c0,0.6,0,1.1-0.2,1.5c-0.2,0.4-0.3,0.6-0.5,0.8c-0.1,0.1-0.2,0.2-0.3,0.5c-0.1,0.1-0.1,0.2-0.1,0.3c-0.2,0.9-0.3,2-0.5,3.5s-0.4,3.1-0.5,4.8c-0.2,1.7-0.4,3.6-0.6,5.5c-0.2,1.9-0.4,3.8-0.6,5.6c-0.2,1.8-0.4,3.6-0.7,5.2c-0.2,1.6-0.5,3-0.7,4.2c-0.1,0.6-0.3,1.1-0.6,1.5c-0.3,0.4-0.7,0.6-1.2,0.6l-3.6,0.2l-0.9,0.1l-0.2-3c-0.1-1,0.3-1.7,1.1-2.2c0.2-0.1,0.4-0.3,0.6-0.3c0.1-0.1,0.2-0.2,0.3-0.5l1-6.4l-2,0.1c-0.7,0-1.2-0.3-1.4-1.1c-0.2-0.6-0.4-1.5-0.6-2.5c-0.3-1-0.5-2.1-0.9-3.3c-0.3-1.2-0.6-2.3-0.9-3.5s-0.6-2.3-0.8-3.3c-0.3-1-0.5-1.8-0.6-2.5c-0.2-0.7-0.3-1-0.3-1.1c-0.2-0.8-0.5-1.3-0.8-1.5c-0.3-0.1-0.5-0.4-0.7-0.7s-0.3-0.8-0.4-1.3l-0.2-2.7l4.7-0.3c0.5,0,0.9,0.1,1.2,0.4c0.3,0.3,0.5,0.8,0.7,1.4c0,0.1,0.1,0.3,0.2,0.8c0.1,0.5,0.2,1.1,0.4,1.9c0.2,0.8,0.4,1.6,0.6,2.6c0.2,1,0.4,1.9,0.7,3c0.5,2.4,1.1,5,1.7,8c0.3-2.9,0.5-5.6,0.8-7.9c0.1-1,0.2-2,0.3-2.9c0.1-1,0.2-1.8,0.3-2.6c0.1-0.8,0.2-1.4,0.2-1.9c0-0.5,0.1-0.8,0.1-0.9c0.1-0.8,0.3-1.5,0.5-1.8c0.2-0.4,0.7-0.6,1.5-0.7L210.6,223.2z"/>
<path d="M221,222.3c1.1-0.1,2.2,0,3.3,0.4c1,0.3,1.9,0.8,2.7,1.3c0.8,0.6,1.4,1.2,1.9,2c0.5,0.8,0.7,1.6,0.8,2.5l0.7,10.6c0.1,1-0.1,2-0.4,2.9c-0.4,0.9-0.9,1.7-1.6,2.3c-0.7,0.7-1.6,1.2-2.5,1.6c-1,0.4-2,0.6-3.2,0.7c-1.2,0.1-2.3,0-3.3-0.2c-1-0.2-1.9-0.6-2.7-1.1c-0.8-0.5-1.4-1.3-1.9-2.1c-0.5-0.9-0.8-1.9-0.8-3.1l-0.7-9.9c-0.1-1.2,0.1-2.3,0.4-3.2c0.4-0.9,0.9-1.7,1.6-2.4c0.7-0.6,1.5-1.1,2.5-1.5C218.7,222.6,219.8,222.4,221,222.3z M222.3,241.9c0.9-0.1,1.5-0.3,1.9-0.9c0.4-0.5,0.6-1.1,0.5-1.6l-0.7-10.1c0-0.5-0.3-1.1-0.7-1.6c-0.5-0.5-1.1-0.7-2-0.7c-0.9,0.1-1.5,0.3-1.9,0.8c-0.4,0.5-0.6,1-0.5,1.6l0.7,10.3c0,0.4,0.3,0.9,0.7,1.4C220.8,241.7,221.5,241.9,222.3,241.9z"/>
<path d="M251.6,239.8c0.3,0.1,0.5,0.4,0.7,0.7c0.2,0.4,0.3,0.8,0.3,1.4l0.2,2.3l-3.8,0.3c-0.5,0-0.9,0-1.1-0.2c-0.2-0.2-0.4-0.4-0.6-0.7c-0.2,0.2-0.5,0.4-0.8,0.6c-0.3,0.2-0.7,0.3-1.1,0.4c-0.4,0.1-0.8,0.2-1.2,0.3c-0.4,0.1-0.7,0.1-1,0.1c-1.2,0.1-2.3,0-3.3-0.2c-1-0.2-1.9-0.6-2.7-1.2c-0.8-0.6-1.4-1.3-1.9-2.2s-0.8-1.9-0.9-3.1l-0.8-11.1c0-0.3-0.1-0.5-0.2-0.6c-0.1-0.1-0.2-0.3-0.4-0.4c-0.3-0.1-0.5-0.4-0.7-0.7c-0.2-0.3-0.3-0.8-0.3-1.3l-0.2-2.6l5.5-0.4c1-0.1,1.6,0.5,1.7,1.7l1,15c0,0.3,0.1,0.5,0.2,0.9c0.1,0.3,0.3,0.6,0.5,0.9c0.2,0.3,0.5,0.5,0.9,0.6s0.8,0.2,1.4,0.2c0.4,0,0.7-0.1,1-0.2c0.3-0.1,0.6-0.2,0.8-0.3c0.3-0.1,0.5-0.3,0.8-0.4l-0.9-13.1c0-0.3-0.1-0.5-0.2-0.6c-0.1-0.1-0.3-0.3-0.4-0.4c-0.6-0.3-0.9-1-1-2l-0.2-2.6l5.5-0.4c0.5,0,1,0.1,1.2,0.4s0.4,0.7,0.5,1c0,0.1,0,0.6,0.1,1.4s0.1,1.9,0.2,3.1c0.1,1.2,0.2,2.5,0.2,3.9c0.1,1.4,0.2,2.7,0.2,3.9s0.2,2.2,0.2,3.1s0.1,1.3,0.1,1.3c0.1,0.3,0.1,0.5,0.2,0.6C251.3,239.6,251.4,239.8,251.6,239.8z"/>
<path d="M266.8,224.2c-0.2,0.1-0.5,0.2-0.8,0.2c-0.6,0-1.2,0.1-1.9,0.2c-0.6,0.2-1.2,0.4-1.8,0.7c-0.5,0.3-1,0.8-1.3,1.3c-0.3,0.5-0.5,1.1-0.4,1.9l0.7,9.6c0,0.3,0.1,0.5,0.2,0.7c0.1,0.1,0.2,0.2,0.4,0.4c0.3,0.1,0.5,0.4,0.8,0.7c0.3,0.3,0.4,0.8,0.5,1.4l0.1,2.3l-8.8,0.6l-0.2-2.4c0-0.6,0-1.1,0.3-1.5c0.2-0.4,0.4-0.6,0.7-0.8c0.2-0.1,0.3-0.3,0.4-0.4c0.1-0.1,0.1-0.4,0.1-0.7l-0.9-12.7c0-0.2-0.1-0.3-0.2-0.4c-0.1-0.1-0.3-0.2-0.4-0.3c-0.3-0.1-0.5-0.4-0.8-0.7c-0.3-0.3-0.4-0.8-0.5-1.3l-0.2-2.6l6.1-0.4c0.8-0.1,1.2,0.3,1.3,1l0.1,0.9c0.3-0.3,0.7-0.6,1-0.9c0.3-0.2,0.7-0.5,1.1-0.7s0.9-0.4,1.4-0.6c0.3-0.1,0.7-0.2,1.1-0.2c0.4,0,0.8,0,1.1,0c0.3,0,0.6,0.1,0.7,0.2s0.2,0.4,0.3,0.9l0.2,2.7C267.1,223.7,267,224,266.8,224.2z"/>
<path d="M299,217.2l0.2,2.4c0,0.6,0,1.1-0.3,1.5s-0.4,0.6-0.7,0.8c-0.2,0.1-0.3,0.3-0.4,0.4c-0.1,0.1-0.1,0.3-0.1,0.6l1.6,23c0.2,2.5-0.4,4.4-1.7,5.8s-3.1,2.2-5.5,2.4c-1.1,0.1-2.2,0-3.2-0.4c-1-0.3-1.8-0.8-2.6-1.3c-0.7-0.6-1.3-1.3-1.7-2c-0.4-0.8-0.7-1.6-0.7-2.5l-0.2-2.8l4.2-0.3c0.4,0,0.7,0.1,1.1,0.4c0.3,0.3,0.5,0.7,0.5,1.2l0,0.1c0.1,0.8,0.2,1.4,0.5,2c0.3,0.6,0.9,0.8,1.8,0.8c0.9-0.1,1.4-0.4,1.7-1c0.2-0.6,0.3-1.6,0.2-2.8l-0.3-5c-0.1,0.1-0.3,0.4-0.8,0.7c-0.5,0.4-1.1,0.6-2.1,0.8c-1.3,0.2-2.4,0.2-3.3-0.1c-1-0.3-1.8-0.8-2.5-1.4c-0.7-0.7-1.2-1.5-1.6-2.5c-0.4-1-0.6-2.1-0.7-3.3l-0.6-8.7c-0.2-2.5,0.3-4.4,1.4-5.8c1.1-1.4,2.9-2.2,5.3-2.4c1.2-0.1,2.2,0,2.9,0.3c0.7,0.3,1.2,0.5,1.4,0.7c0-0.2,0.1-0.4,0.2-0.5c0.1-0.1,0.1-0.3,0.3-0.4c0.1-0.1,0.3-0.2,0.6-0.2L299,217.2z M293,235.1l-0.8-11.5c-0.1-0.2-0.2-0.4-0.4-0.5c-0.3-0.3-0.8-0.5-1.4-0.6c-0.9-0.1-1.7,0.1-2.2,0.6c-0.5,0.5-0.8,1.2-0.7,2l0.7,9.8c0,0.5,0.2,1,0.4,1.3c0.2,0.3,0.5,0.6,0.8,0.8c0.3,0.2,0.7,0.3,1.1,0.3c0.4,0,0.7,0,1,0c0.5-0.1,0.9-0.3,1.2-0.6c0.1-0.1,0.3-0.3,0.4-0.5L293,235.1z"/>
<path d="M309.8,235.9c0.3,0.1,0.5,0.4,0.8,0.7c0.3,0.3,0.4,0.8,0.5,1.4l0.2,2.3l-8.9,0.6l-0.2-2.4c0-0.6,0-1.1,0.3-1.5c0.2-0.4,0.4-0.6,0.7-0.8c0.1-0.1,0.2-0.2,0.3-0.3c0.1-0.1,0.1-0.3,0.1-0.5l-0.9-12.8c0-0.4-0.2-0.6-0.6-0.8c-0.3-0.1-0.5-0.4-0.8-0.7c-0.2-0.3-0.4-0.8-0.4-1.3l-0.2-2.7l6.4-0.4c0.4,0,0.6,0,0.7,0.2c0.1,0.2,0.2,0.4,0.2,0.6l1.2,17.4c0,0.3,0.1,0.5,0.2,0.7C309.5,235.7,309.6,235.8,309.8,235.9z M304.8,213.2c-0.8,0.1-1.5-0.2-2.1-0.7c-0.6-0.5-0.9-1.2-1-2c-0.1-0.8,0.2-1.4,0.7-2c0.5-0.6,1.2-0.9,2-1c0.8-0.1,1.4,0.2,2,0.7c0.6,0.5,0.9,1.2,1,1.9c0.1,0.8-0.2,1.5-0.7,2.1C306.2,212.8,305.6,213.1,304.8,213.2z"/>
<path d="M321.7,208.4c-0.2,0.1-0.3,0.1-0.4,0.1c-1.8-0.3-2.6,0.3-2.5,1.7l0.4,5.6l2.4-0.2l0.2,2.2c0.1,0.9,0,1.6-0.3,2c-0.2,0.4-0.9,0.6-2,0.7l0.9,13.8c0,0.3,0.1,0.4,0.2,0.6c0.1,0.1,0.2,0.2,0.4,0.3c0.3,0.2,0.5,0.4,0.8,0.8c0.3,0.3,0.4,0.8,0.5,1.4l0.2,2.3l-8.9,0.6l-0.2-2.3c0-0.6,0-1.1,0.3-1.5c0.2-0.4,0.4-0.7,0.7-0.9c0.2-0.1,0.3-0.2,0.3-0.3c0.1-0.1,0.1-0.3,0.1-0.5l-1-13.9l-2.3,0.2l-0.2-2.3c-0.1-1.1,0-1.8,0.4-2.1s0.9-0.5,1.8-0.5l-0.4-6.2c-0.1-1,0.1-1.9,0.5-2.7c0.4-0.8,0.9-1.5,1.6-2c0.7-0.5,1.6-0.9,2.6-1.1c1-0.2,2.1-0.2,3.2-0.1c0.1,0,0.3,0.1,0.4,0.2c0.2,0.1,0.2,0.3,0.3,0.5l0.2,3.3C321.9,208.2,321.8,208.3,321.7,208.4z"/>
<path d="M335,234.2c0.2,0,0.4,0,0.5,0c0.1,0,0.3,0.1,0.3,0.2c0.1,0.1,0.2,0.3,0.2,0.5c0.1,0.3,0.1,0.6,0.1,1.1l0.1,1c0.1,0.9-0.2,1.5-0.8,1.7c-1.3,0.4-2.4,0.5-3.4,0.4c-1-0.1-1.8-0.4-2.5-0.9c-0.7-0.5-1.2-1.1-1.6-1.8c-0.4-0.7-0.6-1.4-0.7-2.2l-1-14.1l-2.4,0.2l-0.1-2.1c-0.1-1,0-1.7,0.4-2.1c0.3-0.4,0.9-0.6,1.8-0.7l-0.1-1.9l-0.2-3.2l0,0.3c-0.1-2.1,0.2-3.6,1.1-4.4c0.9-0.8,2.3-1.3,4.2-1.5l0.4,5.2l0.2,3.2l0.1,1.9l2.4-0.2l0.1,1.6c0,0.7,0,1.2,0,1.6c-0.1,0.4-0.2,0.7-0.3,1s-0.4,0.4-0.7,0.5c-0.3,0.1-0.7,0.2-1.1,0.2l0.9,12.5c0,0.6,0.2,1.2,0.5,1.6C333.6,234.2,334.1,234.4,335,234.2z"/>
<path d="M351.9,229.4c-0.6,0-0.9-0.3-1-0.9c-0.1-0.8-0.1-2-0.3-3.6c-0.1-1.6-0.3-3.3-0.4-5.2c-0.2-1.9-0.3-3.8-0.5-5.8c-0.2-2-0.3-3.8-0.4-5.4c-0.1-1.6-0.2-3-0.3-4.1c-0.1-1.1-0.1-1.7-0.1-1.8c0-0.4,0-0.6,0.2-0.9c0.1-0.2,0.4-0.3,0.9-0.4l2.5-0.2c0.4,0,0.7,0,0.9,0.1c0.2,0.1,0.4,0.4,0.5,1c0,0.2,0,0.8,0.1,1.9c0.1,1.1,0.1,2.5,0.2,4.1c0.1,1.6,0.2,3.4,0.3,5.4c0.1,2,0.2,3.9,0.3,5.7c0.1,1.9,0.2,3.6,0.3,5.1s0.2,2.7,0.2,3.6c0,0.7-0.2,1.1-0.6,1.1L351.9,229.4z M353.5,232.7c0.7-0.1,1.4,0,1.9,0c0.5,0.1,0.8,0.2,0.8,0.4l0.3,3.7c0,0.3-0.2,0.5-0.7,0.6c-0.5,0.2-1.1,0.3-1.8,0.3c-0.7,0-1.4,0-1.9,0c-0.5-0.1-0.8-0.2-0.8-0.4l0-0.1l-0.3-3.7c0-0.3,0.2-0.4,0.8-0.6C352.1,232.9,352.7,232.8,353.5,232.7z"/>
</g>
</g>
</svg>
