<svg width="60" height="60" viewBox="0 0 470 470" fill="none" xmlns="http://www.w3.org/2000/svg">
<g id="tap 1" clip-path="url(#clip0)">
<g id="zoomHand">
<g id="Group">
<path id="Vector" d="M438.827 186.347L358.614 98.1982C342.742 82.3262 316.886 82.3052 300.865 98.3262C295.788 103.403 292.332 109.483 290.54 115.969C274.583 103.745 251.564 104.961 236.865 119.66C231.809 124.737 228.353 130.817 226.518 137.281C210.561 125.1 187.542 126.294 172.865 140.993C167.894 145.964 164.481 151.894 162.625 158.209L124.822 120.406C108.95 104.534 83.0939 104.513 67.0729 120.534C51.1799 136.406 51.1799 162.262 67.0729 178.155L212.31 323.392L126.166 336.917C102.891 340.245 85.334 360.469 85.334 384C85.334 401.643 99.691 416 117.334 416H318.486C349.825 416 379.286 403.797 401.451 381.632L435.008 348.075C457.152 325.952 469.333 296.512 469.333 265.216C469.333 235.989 458.496 207.979 438.827 186.347ZM419.925 332.992L386.368 366.549C368.235 384.682 344.128 394.666 318.485 394.666H117.333C111.445 394.666 106.666 389.887 106.666 383.999C106.666 371.028 116.351 359.871 129.343 358.015L236.33 341.204C240.298 340.585 243.562 337.791 244.821 333.972C246.058 330.175 245.056 325.972 242.218 323.135L82.1549 163.072C74.5819 155.499 74.582 143.168 82.262 135.467C86.059 131.691 91.0299 129.792 96.0009 129.792C100.972 129.792 105.942 131.691 109.74 135.488L216.471 242.219C220.631 246.379 227.394 246.379 231.554 242.219C233.623 240.128 234.669 237.398 234.669 234.667C234.669 231.936 233.624 229.206 231.533 227.115L187.949 183.531C180.376 175.958 180.376 163.648 188.077 155.947C195.629 148.395 207.981 148.395 215.533 155.947L259.138 199.552C263.298 203.712 270.061 203.712 274.221 199.552C276.29 197.461 277.336 194.731 277.336 192C277.336 189.269 276.291 186.539 274.2 184.448L251.949 162.197C244.376 154.624 244.376 142.314 252.077 134.613C259.629 127.061 271.981 127.061 279.533 134.613L301.89 156.97C301.933 156.991 301.911 156.991 301.911 156.991L301.932 157.012C301.953 157.033 301.953 157.033 301.953 157.033C301.974 157.054 301.974 157.054 301.974 157.054H301.995C302.016 157.054 302.016 157.075 302.016 157.075C306.197 161.043 312.811 160.958 316.885 156.862C321.045 152.702 321.045 145.939 316.885 141.779L315.968 140.862C312.299 137.193 310.272 132.307 310.272 127.123C310.272 121.939 312.277 117.075 316.075 113.278C323.67 105.726 335.958 105.747 343.19 112.915L423.062 200.702C439.125 218.389 448 241.301 448 265.216C448 290.816 438.037 314.88 419.925 332.992Z" fill="#E9454F"/>
</g>
</g>
<g id="Group_2">
<g id="Group_3">
<path id="Vector_2" d="M183.381 109.931C167.851 75.563 133.547 53.333 96 53.333C43.072 53.333 0 96.405 0 149.333C0 186.88 22.229 221.184 56.597 236.736C58.026 237.376 59.52 237.675 60.992 237.675C65.045 237.675 68.928 235.328 70.72 231.403C73.131 226.027 70.741 219.712 65.387 217.28C38.635 205.184 21.334 178.517 21.334 149.333C21.334 108.16 54.827 74.666 96.001 74.666C125.185 74.666 151.852 91.967 163.948 118.719C166.359 124.095 172.695 126.506 178.049 124.052C183.424 121.621 185.813 115.307 183.381 109.931Z" fill="#E9454F"/>
</g>
</g>
</g>
<defs>
<clipPath id="clip0">
<rect width="469.333" height="469.333" fill="white"/>
</clipPath>
</defs>
</svg>
